<?xml version="1.0" encoding="UTF-8"?>
<svg width="256px" height="256px" viewBox="0 0 256 256" version="1.1" xmlns="http://www.w3.org/2000/svg">
    <g fill="none" fill-rule="evenodd">
        <rect fill="#EB2F2F" x="0" y="0" width="256" height="256" rx="28"></rect>
        <path d="M76.5,89 L179.5,89 C184.194,89 188,92.806 188,97.5 L188,158.5 C188,163.194 184.194,167 179.5,167 L76.5,167 C71.806,167 68,163.194 68,158.5 L68,97.5 C68,92.806 71.806,89 76.5,89 Z M128,116 C118.059,116 110,124.059 110,134 C110,143.941 118.059,152 128,152 C137.941,152 146,143.941 146,134 C146,124.059 137.941,116 128,116 Z" fill="#FFFFFF"></path>
    </g>
</svg>