<?xml version="1.0" encoding="UTF-8"?>
<svg width="800px" height="800px" viewBox="0 0 800 800" version="1.1" xmlns="http://www.w3.org/2000/svg">
    <g stroke="none" stroke-width="1" fill="none" fill-rule="evenodd">
        <g stroke="#FFFFFF" stroke-width="0.5">
            <path d="M0,0 L800,0 L800,800 L0,800 L0,0 Z M100,0 L100,800 M200,0 L200,800 M300,0 L300,800 M400,0 L400,800 M500,0 L500,800 M600,0 L600,800 M700,0 L700,800 M0,100 L800,100 M0,200 L800,200 M0,300 L800,300 M0,400 L800,400 M0,500 L800,500 M0,600 L800,600 M0,700 L800,700"></path>
        </g>
    </g>
</svg>